<?xml version="1.0" encoding="utf-8"?>
<!-- Generator: Adobe Illustrator 24.0.3, SVG Export Plug-In . SVG Version: 6.00 Build 0)  -->
<svg version="1.1" id="Layer_1" xmlns="http://www.w3.org/2000/svg" xmlns:xlink="http://www.w3.org/1999/xlink" x="0px" y="0px"
	 viewBox="0 0 1440 798" style="enable-background:new 0 0 1440 798;" xml:space="preserve">
<style type="text/css">
	.st0{fill:none;stroke:#000000;stroke-miterlimit:10;}
</style>
<g id="MZXNF8.tif">
	<path class="st0" d="M651,657.1c0,0,56-194.2-37.8-254.1c0,0,88.6,100.3,67.1,215.7c0,0,67.7-193.5,39.7-260.6c0,0,32-5.9,31.3,3.9
		c-0.7,9.8-16.3,5.2-13,21.5"/>
	<path class="st0" d="M702.7,325.9c0,0-18-62.6-76.2-65.6l-6.5,8.7c0,0,2.2-10.3-14.1-12.5c-16.3-2.2,0,25.8,0,25.8
		s26.1,69.1,95.5,63.4c0,0-77.3-71.3-44.1-122.2s69.9,45.7,69.9,45.7l22.9-5.7c0,0,34.3,35.1,36.5,34.8s2.2,16.3,1.6,19"/>
	<path class="st0" d="M791.7,344.6c0,0,69.6-0.4,85.2-92.8c0,0-51.1,81.9-68.1,87.4c0,0,60.2-51.8,48.9-87.4l-9.1,3.6
		c0,0-10.1-14.9-11.6-12c-1.4,2.9,6.9,8.7-4.7,10.9c-11.6,2.2-47.2,40.3-45.7,44.1s5.5-61.5-42.7-75.3c0,0-13.8,12.8,5.8,36.2"/>
	<path class="st0" d="M797.1,324.3c0,0,26.5-27.5-3.3-73.9l-13.4-8.7l-15.6-32.8c0,0-8-6.7-23.6-2.7v5.4l-26.8,22.1l8,10.5h13.4
		l9.4,13.8"/>
	<path class="st0" d="M720,307.6l7.2-38.3c0,0-36.7,20.9-37.4,57.8"/>
</g>
</svg>
